<svg xmlns="http://www.w3.org/2000/svg" viewBox="0 0 64 64">
  <title>PWRD.</title>
  <rect width="64" height="64" rx="14" fill="#0d0b10"/>
  <path fill="#fff" d="M24.48 35.57 C31.99 35.57 37.07 28.18 37.07 23.58 C37.07 17.09 33.25 11.15 23.49 11.15 C22.64 11.15 21.67 11.21 20.94 11.27 L20.94 34.98 L20.94 35.89 L20.94 44.99 C20.94 49.96 21.48 51.36 23.37 51.9 L23.37 52.69 L13.54 52.69 L13.54 51.9 C15.36 51.36 15.97 49.96 15.97 44.99 L15.97 17.94 C15.97 12.97 15.36 11.57 13.54 11.03 L13.54 10.24 L25.85 10.24 C38.41 10.24 42.41 16.31 42.41 22.19 C42.41 28.19 35.98 37.18 24.4 37.18 Z"/>
  <path fill="#fff" d="M50.46 50.86 C50.46 52.46 49.16 53.76 47.55 53.76 C45.95 53.76 44.65 52.46 44.65 50.86 C44.65 49.25 45.95 47.95 47.55 47.95 C49.16 47.95 50.46 49.25 50.46 50.86"/>
</svg>
